<svg xmlns:svg="http://www.w3.org/2000/svg" xmlns="http://www.w3.org/2000/svg" width="1655" height="518" viewBox="0 0 1655 518" version="1.1"><g transform="translate(1793.899,-949.38456)"><path d="m-1793.9 1201.4 32.1 0-0.4-17.5 76.5-41.3 56.8 41.7 4.2 15.4 27.3 0.9-1.5-247.5 80.4-3.8-0.1 231.6 48.1-0.4-8.2-229.6 89.4-1 1.5 91.5 38.2 0.7 1.3-70.3 17 0 0 71 12 1-2.5 13.5-10.5 0.1-1.8 142.7 27.8 0.1 6.1-67.9 47.3-3.5-2-33.3 14.1-34.2 15.8 8.1-11.9 28.1 4.6 30.5 43.6 0.2 3.8 57.2 41.5-0.3 1-25 35 0 0.4 8.6 244.1-181.2-0.1 61.8 31.1 128.4-12.9 0-18.6-75.8-1.6 99.8 40.9 0 281.1-220 1.7 72.5 57.1 124.7 256.5-172.8 2 75.1 22.3 87-10.9 6.9-11-37.1 1.8 63.2 84.5 0.5 0 266-1655 0zm958.8 203.8 0.7-43.3-51.6 0.2 1.8 44.4zm278.1-40.6-47.7-1.5 1.7 44.3 47.5-0.5zm60.7-0.4-47.7 0.1 2.6 43 46-0.5-0.8-42.6zm-277.2 38.1-2.1-39.6-45.8-0.9-1.5 42.6zm-218-40.6-55.5 1.4 0.7 39.4 55.2 0.7zm58.1 40.2-2.3-41.7-41.8 0.5 1 41.3zm436.1-101-50.9 1.4 3.9 48.9 47.8 1.5zm-494.7 48.3-0.5-38.5-54.5 1.6 0.7 38.2zm157.1 0.2 1-41-54.3-2.3 1.7 44.1zm275.3-47.4-46.9 1.7 1.7 46.4 46.7 1.1zm-376.3 46.4-1.7-38-42.5 1 2.4 37.7zm158.8 0.3-2.7-38.5-41.3-0.8-0.9 39.6 44.9-0.3zm-894.7-111.2-1.1-50.5-45.2 0.9 0.4 49.9zm321.8-178-38.6 1.2-1.8 139.7 38.9 0.4zm852.1 126.9-43.1-95.6 1.7 110.4 21.2 0 20.2-14.9z" fill="#000"/></g></svg>
