<svg xmlns:svg="http://www.w3.org/2000/svg" xmlns="http://www.w3.org/2000/svg" width="1655" height="536.2" viewBox="0 0 1655 536.2" version="1.1"><g transform="translate(1721.0753,2710.1255)"><path d="m-1721.1-2173.9 0-311 122.5-3 14.1 47.5 41.6 0.5-2.4-18.5 77.6-41.3 1.2-0.3 55.8 41.8 4.2 17.7 26.7 0.6-1.5-249.8 82.5-2.5-1.5 233.6 46.8-1.6-7.6-231.7 90 0 0 92 39 1.3 1.3-71.3 18 0-1 71 12.8 1.3-4.5 14.7-8.3 0-2.6 143 28.3 0 5.4-69.7 48.2-2.3-2.8-34.5 13.9-33.4 16.3 8-11.6 27.8 4.6 31.2 43.5-0.6 4.4 57.3 41.1 0.3 0-26 36.5 0 5.4 12.4 237.6-184.5 1 63.6 31.5 126.5-14.5 0-18.4-73.5-0.1 97.5 39.5-0.1 280.9-219.9 2.3 71.5 56.6 125.5 199.7-134.1 0 423.1-1654 0zm1104-62.2 0-43.8-51.3 0 1.3 45.9zm280.2 2.2-2.4-43-47.1 0 1.3 43zm59.3 0-0.9-41.8-47.1-1.5 2.5 43.3zm-277.9-4.4-2.6-41.6-46 0 0 43.2zm-217.6 0.4-1.3-41.9-54.7 2 0 39.9zm57.8 0-2-43.3-42.2 1.4 0.8 41.9zm437.4-51-1.2-50.5-49.9 1.1 2.9 48.3zm-62-1-2.5-48-46.6 0 2 46.9zm-434-1-1.5-39.4-53.8 0.5 0 38.9zm157.7 0 0-42.8-54.7-2.3 1.9 45.1zm-101.8-1-1.6-39.5-42.1 0.7 1.5 38.8zm159.1 0-2.6-39.7-41.2-1.1-1 40.8zm-894.3-112.3-2.3-51.7-45.2 2.2 1.7 52.1zm319.7-35.7 1-141.7-38.1 1.2-1.5 140.5zm822.5 0 9.9 0 20.9-14-42.6-96.9 1.9 111z"/></g></svg>
