<svg xmlns:svg="http://www.w3.org/2000/svg" xmlns="http://www.w3.org/2000/svg" width="467" height="154.5" viewBox="0 0 1654.7 547.4" version="1.1"><g transform="translate(836.07138,-159.34985)"><path d="m-834.8 404.8 40.4 0 2.5-105-7.4-0.9-9.3-47.9 71.2-1.8-9.2 51.2-11 1-2 104.5 24.5 1.3 0 14.6 68-1.2 0-15.7 40.7 0 2.5-105-7.4-0.9-9.3-47.9 71.2-1.8-9.2 51.2-11 1-2 104.3 22.9 1.3 6 35.9 123.4 0-2.8-43.9 35.7-2.1 2.5-105-7.4-0.9-9.3-47.9 71.2-1.8-9.2 51.2-11 1-2 104.5 24.5 1.3 2.3 15.1 80.8 0.6-0.6-57.8-10.5-1.9 0.6-18.8 9.5-0.6 0-76.9 20 0 0 74.3 16.6-1.3-0.1-163.5 47.8-5.5-1.5 252.7 31.3 0.2 9.6-70.6-15.8-2.2 0.6-18.5 17.6-2.3 22-162.6 49.6 6-21.2 160.7 32.2 7.3 21.4-166 49.6 4-18.3 164.1 70.3-10.3 2.3-32.5 29.7 0 3.9-59.7 24.4-2.2 0-24.5 99.2-29.1 81.2 33.1 0.6 20.5 21 0 0-30.5 96.5-29.2 83.4 31.5 1.9 27 26.1 1.3 0-18.5 96.5-29.2 83.5 31.5 1.2 16.3 52.8 0 10.2 210 37.8 0 0 266-1655 0zm775.5-51.5-32.5-6.1-9.3 67.7 34.6 2zm-168.8-3.7-15.2 1.9-1.7 64.4 17 0zm635.6 40 5.3-47.2-55.6-2.5-1.9 52.6zm73.4-3.1 0-41.4-54-2.5-3.6 46.3zm130-0.7 0-45.2-42.9 1.8-2.7 44.6zm68-48-51 2.3 0 44.8 51 0zm-464.2-1.3-64.8 0.4-1.3 43.9 63.2 0zm70.2-0.7-58 0.8-3 44.3 61 0zm198.2-72.5-49 1-5.2 62.5 53 1.1zm-68.1 62.3 7.5-61.2-63.2 0.8-1.6 59.6zm265.4-56.3-51.5 0.7-1.2 55.8 52.1 0zm-69.5 1.5-39.7 0-2.6 54 42.3 0zm-395.3 51.6 4.2-59.6-69 0-1.3 61.3 66-1.7zm69.3-1.9 0-57.7-52.7 0-4.6 59z"/></g></svg>