<svg xmlns:svg="http://www.w3.org/2000/svg" xmlns="http://www.w3.org/2000/svg" width="1654" height="547.5" viewBox="0 0 1654 547.5" version="1.1"><g transform="translate(1720.4798,2730.6756)"><path d="m-1720.5-2183.2 0-266 14.7 0 1.3-26 115-2.6 0 9.6 16.2 0-0.7-16.5 40.3 0.7 3.4-107.2-9.7 0-7.3-47.4 69.8-1.8-9.3 51.1-10.4-1.1-2.5 107.3 25.3 0 0 16 69.2-1.2-0.7-16.3 40.3 0.7 3.4-107.2-9.7 0-7.3-47.4 69.8-1.8-9.3 51.1-10.4-1.1-2.5 107.3 23 0 5.7 36 124.8 0-2.6-45 35.1 0 3.3-107-9.7 0-7.3-47.4 69.8-1.8-9.3 51.1-10.4-1.1-2.5 107.3 25.3 0 0 15.7 84.3 1.3-1.6-62.6-10.7 1.2 0-17.6 11.2-1.7-0.7-76.3 19.5 0 0 75.2 15.3-1.8 1.2-163 47.6-5.9-2.3 253.6 33 0 10.2-74-17 0 0-17.8 18.8-1.4 21.5-164.4 48.6 6.2-22.1 161.1 34.6 8 20.9-167.3 49.1 3.8-19.1 165.4 73.6-10.9 0-31.8 30.5-1.5 3.9-61.5 23.6 0 0-23.6 97.9-29.4 82.1 31.5 1.2 21.6 20.8 0 0-29.6 97.9-29.4 82.1 31.5 1.3 27.6 26.7 0 0-17.6 97.9-29.4 38.1 14.3 0 70.7-45 1.3 0 55.5 45 1.3 0 10.7-45.5 1.8-0.5 46.5 46 0 0 321-1654 0zm915-289 8-65.6-34.2-6-9.8 71.7zm-161-1 0-68.2-18 2.5 0 64.7zm635.5-26.5 5.3-49-57.3-2.4-1.8 54.1zm25.3-0.8 46.4-2.8 2-42.7-55.7-1.7-3.5 47.8zm154.3-2.7 23 0 0-47.1-42.5 1.3-3.5 45.7zm-375.1-6 3.4-45-66.7 0.5-0.5 44.5zm72.1 0 0-46.1-58.3 1.1-3.7 45zm196.7-52 1.3-66-50 0-5 65zm-65.8-2 7.1-63-63.9 1.3-2.3 60.7zm173.6-1 21.5 0 0-56-40.5 1.5-2.5 54.5zm-372.6-3.5 3.7-59.5-69.3 0-1.3 62.1zm68.1-0.8 0-58.7-53.6 0-4.7 60z" style="fill:#484;"/></g></svg>
