<svg xmlns:svg="http://www.w3.org/2000/svg" xmlns="http://www.w3.org/2000/svg" width="467.1" height="154.5" viewBox="0 0 467.1 154.5" version="1.1"><style>.s0{fill:#000;}</style><g transform="translate(890.71341,-195.11685)"><g transform="matrix(0.28222638,0,0,0.28222638,-655.56239,158.0323)"><path d="m-833.2 412.7 158.8 0 3.5-27.5 73 0.7-0.7-17.3 99.5 2.4 0 15.4 84.3 1.3-1.6-62.6-10.7 1.2 0-17.6 9.9-0.9 0.6-77.1 19.5 0 0 75.2 15.3-1.8 1.2-163 47.6-5.9-1.7 140.4-0.6 113.3 33 0 9.7-71.7-16.5-2.2 0-17.8 19.3-3.6 21-162.2 48.6 6.2-21.6 159 34.2 10.1 20.9-167.3 49.1 3.8-28.5 247.6 50.5 0.5-19.1 220.1 42.2-3.5 2.2-2.5 40.2-19.5 119.3-158.7 32.9-16.7 37.8 30.1-25.3 21.2 5.6 142.5 60.7 0 183.9-170.4 24.1-9.7 24.4 35.2-17 15.1-19.1 137 17.1 21 3.1-0.3 3.8-23.5 39.7 0 0 24.8 30.8 1.1-4.8 24.6 135.7-0.3 0.3-168.1-32.1-0.5 78.2-41-2.2-93.2-44.7-34.7-43.2 10.4 3 13.7-34.9 11.5-5.5-18.5 25.9-23.4 56.5-11.3 60.5 47.2 7.7 61.8 74.8 0 0-32 26 0 10-16 8.5 16 16.5 0 9-14 5.1 10.5 0 301.5-1655.2 0zm721.2 232 10.8-20-34.8 3.6-3.1 36.6 16.5-0.6zm291.6-23.5-61.6-3 16.3 42.8 17 1.7zm532.2-62.7-41 3.4 0 38.9 40.5-0.5zm56.6 39.9 1.5-43.2-45.1 2.5 0 42.1 43.7-1.5zm-1160-31.2 1.8-23.7 0.6-6.7-23.4 0-23.4 0-0.7 12.8-1.3 23.5-0.6 10.7 11.9 0.3 22.9 0.3 11-0.1 1.2-17zm-57.3 6.3 1.3-23 0.7-13.7-21 0-21 0-0.6 8.3-1.3 21.9-0.7 13.7 2.4 0.6 13.9 0.8 18.6 0.5 7.1 0.2zm124.7 7.5 1.9-20.2 1.7-18.6-39.2-4.1-3.4 41.3 0 3.4 19.5 0zm66.7-14.9-1.1-17.1-45.5-5-3.7 17.3-2.3 19.2-0.1 2.3 26.7 0 26.7 0-0.6-16.6zm969-18.8 1.4-40.7-37.8 1.6-3.4 42.2zm59.3-2.9 0-40-46 1.3 0 42zm-1030.4-34-1.2-25.9-23.9-2.6-13 0.3-3 23.7-2.5 24.2 40.3 4.5 3.9 0.1zm-59.1 14 2.1-19.7 2.1-19.8 0.6-4.3-20.8 0.3-20.8 0.3-1.7 21.5-1.4 21.7 37.3 4.2zm-139.8 1.6 12.1-0.7 0.6-8.6 1.2-22.1 1.1-16.8 0.5-3.3-19.8 0.7-21.4 1.5-2.8 23.6-1.2 25.2 8.8 1.8zm47.3-2.9 22.7-1.8 3.1-48.3-23.9 0.2-23.3 0.9-0.6 12-1.3 25.3 0.1 13.2zm193.6-135.8 7.5-61.9-34.6-6.4-9.4 68.8zm-161.5-67-18 2.5 0 64.7 18 1.1z"/><circle cx="15.7" cy="532.9" r="126.1" fill="#000"/><circle cx="281.8" cy="528.2" r="126.1" fill="#000"/></g></g></svg>