<svg xmlns:svg="http://www.w3.org/2000/svg" xmlns="http://www.w3.org/2000/svg" width="467" height="146.3" viewBox="0 0 1654.7 518.4" version="1.1"><g transform="translate(833.22598,-160.27797)"><path d="m-833.2 412.7 84.7 0 1.1-70.5-9.9 42.3-10.9-6.9 22.2-85.2 1.3-74.8 257.7 172.3 56.9-125.7 1.4-70.5 279.9 219 41.6 0-1.5-101.5-18.9 77.5-12.6-1 32.2-129.5-0.8-58.4 237.5 184.7 6.4-13.8 35.7 0 0 26 41.8 0 4.6-57.9 43.4 1.9 4.5-32.5-11.3-26.9 14.8-7.1 13.7 33-2.5 33.9 48.6 1.9 4.7 69.7 30 0-2.6-144-11.4 0-2.6-13.5 13.8-0.5-1-72 17.5 0 0 72.3 41.2-1.3-0.7-93 89 0-8.1 232.6 48.8 1.6-2.2-234.4 82.3 2.4-2.3 249.8 28.5-0.6 4.2-17.4 56.5-40.8 75.5 40.4-1.5 18.3 34 0 0 266-1655 0zm405.3 161.7-49.3 1.3 0 43 46.7 0zm60.8 0.3-48.6 0.5-2.4 43.5 48.8 0zm280.2 42.3 1.8-44.2-53.2 0 0 44.9zm-62.4-44.2-48 1.8-1.6 40 49.6 2.3zm155.8-0.7-44.8-1.3-1.3 44 44.2 0zm68.2 1.9-55.7-1.9-1.3 42.7 57 0zm-502.3-10.6 2.2-49.7-49.6-0.9-1.2 52.3zm60.4-1.5 2.1-46.8-48-1.3-2.5 49.9zm283.8-45.4-56 2.4 0.8 41.5 53.9 2.4zm158 6.5-55-1.3-1.3 39.9 56.3 1.1zm-225-4.3-41.6 2.1-4.7 40.9 46.3 0zm158 2-43.4 2.3-1.7 38.8 43.9 0zm736.8-122.5-44.2-1-2.5 52.2 47.7 2.3zm-1175.7-99.5-43.9 100.4 20.3 13.5 22.3 0zm848.6-26.7-40.1-2.2 0.8 142.8 41 0z"/></g></svg>