<svg xmlns:svg="http://www.w3.org/2000/svg" xmlns="http://www.w3.org/2000/svg" width="466.7" height="154.5" viewBox="0 0 1653.7 547.4" version="1.1"><style>.s0{fill:#000;}</style><g transform="translate(833.22598,-131.22287)"><path d="m-833.2 545.7 0-133 15.3 0 0.9-27.5 73 0.7-0.7-17.3 99.5 2.4 0 15.4 84.3 1.3-1.6-62.6-10.7 1.2 0-17.6 9.9-0.9 0.6-77.1 19.5 0 0 75.2 15.3-1.8 1.2-163 47.6-5.9-2.3 253.6 33 0 10-74.2-16.9 0.3 0-17.8 19-1.1 21.4-164.7 48.6 6.2-21.6 159 34.2 10.1 20.9-167.3 49.1 3.8-28.5 247.6 50.5 0.5-19.1 220.1 42.2-3.5 3.5-3.7 165.4-181.9 25.7-11.7 37.8 30.1-20.3 19.8 0.6 144 60.7 0 183.9-170.4 24.1-9.7 24.4 35.2-17 15.1-19.1 137 14.9 21 5.3-0.3 3.8-23.5 39.7 0 0 24.8 28.7 2-2.7 23.8 135.7-0.3 0.3-168.1-32.1-0.5 78.2-41-2.2-93.2-44.7-34.7-43.2 10.4 3 13.7-34.9 11.5-5.5-18.5 25.9-23.4 56.5-11.3 60.5 47.2 7.7 61.8 74.8 0 0-32 26 0 10-16 8.5 16 16.5 0 9-14 6 12.5 20.8 0.6 7.1-10.1 7.2 10.1 12.8 0 4.2-15.8 10.7 15.3 17.4-0.5 1.3 34 62.7 0 0 266-1654 0 0-133zm586 79-34.8 3.6-3.1 36.6 16.5-0.6zm280.9-3.5-61.6-3 16.3 42.8 17 1.7zm532.2-62.7-41 3.4 0 38.9 40.5-0.5zm56.6 39.9 1.5-43.2-45.1 2.5 0 42.1 43.7-1.5zm-1160-31.2 2.3-30.5-46.7 0-2.6 46.9 45.8 0.6 1.2-17zm-55.4-30.5-42 0-2.6 43.9 42 2.1zm122.7 44.3 3.6-38.9-39.2-4.1-3.4 44.7zm65.5-32-45.5-5-6 38.8 53.3 0zm970.2-1.6 1.4-40.7-37.8 1.6-3.4 42.2zm59.3-2.9 0-40-46 1.3 0 42zm-1031.6-59.9-36.9-2.3-5.5 47.9 44.2 4.6zm-53.3-3.9-41.6 0.5-3.1 43.2 39.5 3.8zm-132.4 44.8 3.3-50.8-41.2 2.2-4 48.8zm57.9-4 3.1-48.3-47.2 1.1-1.8 50.5zm170.8-134 7.5-61.9-34.6-6.4-9.4 68.8zm-161.5-67-18 2.5 0 64.7 18 1.1z"/><circle r="126.3" cy="533.2" cx="-130.2" fill="#000"/><circle r="126.3" cy="529.7" cx="135.5" fill="#000"/></g></svg>