<svg xmlns:svg="http://www.w3.org/2000/svg" xmlns="http://www.w3.org/2000/svg" width="467" height="146.3" viewBox="0 0 1654.7 518.4" version="1.1"><g transform="translate(833.22598,-160.27759)"><path d="m-833.2 412.7 34 0-1.5-18.3 75.5-40.4 56.5 40.8 4.2 17.4 28.5 0.6-2.3-249.8 82.3-2.4-2.2 234.4 48.8-1.6-8.1-232.6 89 0-0.7 93 41.2 1.3 0-72.3 17.5 0-1 72 12.8 0-1.3 12.3-11.7 1.8-2.6 144 30 0 4.7-69.7 48.6-1.9-2.5-33.9 13.7-33 14.8 7.1-11.3 26.9 4.5 32.5 43.4-1.9 4.6 57.9 41.8 0 0-26 35.7 0 6.4 13.8 237.5-184.7-0.8 58.4 32.2 129.5-12.6 1-18.9-77.5-1.5 101.5 41.6 0 279.9-219 1.4 70.5 56.9 125.7 257.7-172.3 1.3 74.8 22.2 85.2-10.9 6.9-9.9-42.3 1.1 70.5 84.7 0 0 266-827.5 0-827.5 0zm960 204.7 0-44.7-53.2 0 1.8 44.3zm277.5-42.2-48.6-0.5 2.2 44 48.8 0zm61.5 0.5-49.3-1.3 2.6 44.3 46.7 0zm-277.7 38.9-2.6-41.9-47.7 0 0 44.2zm-218.6-42.6-55.7 1.9 0 40.8 57 0zm57.3-1.3-44.8 1.3 1.9 42.7 44.2 0zm436.7-58-49.6 0.9 2.1 50 48.8 1.1zm-62 0.8-47.3 1.4 1.1 47.3 48.8 1.5zm-432.2 48-0.8-39.8-54.8 1.3 0 40zm157.5-0.8 1-41.8-56-2.4 1.3 46.4 53.7-2.1zm-102.6-37.7-43.4-2.2 1.3 41 43.9 0zm156.2-2.2-41.6-2.1 0 43 46.3 0zm-889.6-71.4-2.5-52.2-44.2 1-0.9 53.7zm320.5-179.5-40.1 2.2-1.7 140.7 41 0zm852.3 129.3-43.9-100.4 1.3 114 22.3 0z"/></g></svg>