<svg xmlns:svg="http://www.w3.org/2000/svg" xmlns="http://www.w3.org/2000/svg" width="467" height="150.6" viewBox="0 0 467 150.6" version="1.1"><g transform="translate(802.09965,-842.7926)"><g transform="matrix(0.28222638,0,0,0.28222641,-566.94863,801.7851)"><path d="M-834.3 412.7-791.2 412.7l0-79.8 44.1-1.8 3.9 76.8 70 3.5-4.9-34.2 150.3-21.5 11 56.9 76.4 0-2.8 90.2 102.5-2.8 4.5-87.4 59 0 0-248 56 0 4 248 50.7 0 1.3-252.2 63.6 2.4-4.6 249.8 179 0-7.5-154 45.1 0 12.5 153.3 75.7 0.8 4.4 89.2 121.6 2.4-3.9-91.6 78.9 0 1.3-208 48 0 2.9 207.8 116.2 0.3-3.4-35.2-11.8 0.7 0-47.5 9.2 0-2.4-25.2-8.4 0.7-5.4-40.2 11.2-2.6-3.5-34.6-10.3 1.4-7.4-38.6 15-2-1.5-26.5 251.3-17.9 2 16.2 12.2-0.3 0 41.6-7.3 0 2.6 23 6.4 0 5 50.3-4.8 2.8 5.9 134.1 0 265.8-1656.8 0z"/></g></g></svg>