<svg xmlns:svg="http://www.w3.org/2000/svg" xmlns="http://www.w3.org/2000/svg" width="467" height="154.6" viewBox="0 0 467 154.6" version="1.1"><g transform="translate(662.10832,-769.3338)"><g transform="matrix(0.2822198,0,0,0.2822198,-426.991,732.2219)"><path d="M-833.8 377.2-791.4 377.9l3.4-107.2-9.7 0-7.3-47.4 69.8-1.8-9.3 51.1-10.4-1.1-2.5 107.3 25.3 0 0 16 69.2-1.2-0.7-16.3 40.3 0.7 3.4-107.2-9.7 0-7.3-47.4 69.8-1.8-9.3 51.1-10.4-1.1-2.5 107.3 23 0 5.7 36 124.8 0-2.6-45 35.1 0 3.3-107-9.7 0-7.3-47.4 69.8-1.8-9.3 51.1-10.4-1.1-2.5 107.3 25.3 0 0 15.7 84.3 1.3-1.6-62.6-10.7 1.2 0-17.6 9.9-0.9 0.6-77.1 19.5 0 0 75.2 15.3-1.8 1.2-163 47.6-5.9-2.3 253.6 33 0 9.7-71.8-16.5-2.2 0-17.8 19.3-3.6 21-162.2 48.6 6.2-21.6 159 34.2 10.1 20.9-167.3 49.1 3.8-19.1 165.4 73.6-10.9 0-31.8 30.5-1.5 3.9-61.5 23.6 0 0-23.6 97.9-29.4 82.1 31.5 0.5 22.2 21.5-0.6 0-29.6 97.9-29.4 82.1 31.5 1.3 27.6 26.7 0 0-17.6 97.9-29.4 82.1 31.5 0 15.6 54 0 9 208.8 39.8 1.3 0 266-1656.5 0zM-62.7 387.5l7.5-61.9-34.6-6.4-9.4 68.8zm-161.5-67-18 2.5 0 64.7 18 1.1zm635.5 41.7 5.3-49-57.3-2.4-1.8 54.1zm71.7-3.6 2-42.7-55.7-1.7-3.5 47.8zm130.8-47-43.2 2-2.8 45.1 46 0zm67.7 44.7 1.5-47.2-52.7 2-0.5 46.7zm-462.4-48.7-66.7 0.5-0.5 44.5 63.9 0zm68.8-1.1-58.3 1.1-3.7 43 62 2zm197.3-12.6 0.7-59.2-50 1.3-5 61.9 53.7 2.8zm-59.3-56.3-64.4 0.9-1.8 59.1 59.1 1.1zm258 3-53 1.3 0 55.6 51.7 1.1zm-70 1-40.5 1.5-2.5 54.5 43 0zm-394.8 53.1 4.4-60.1-69.3 0-1.3 62.1zm68.8-1.4 0-58.7-53.6 0-4.7 60z"/></g></g></svg>