<?xml version="1.0" encoding="UTF-8" standalone="no"?>
<!-- Created with Inkscape (http://www.inkscape.org/) -->

<svg
   xmlns:dc="http://purl.org/dc/elements/1.1/"
   xmlns:cc="http://creativecommons.org/ns#"
   xmlns:rdf="http://www.w3.org/1999/02/22-rdf-syntax-ns#"
   xmlns:svg="http://www.w3.org/2000/svg"
   xmlns="http://www.w3.org/2000/svg"
   xmlns:sodipodi="http://sodipodi.sourceforge.net/DTD/sodipodi-0.dtd"
   xmlns:inkscape="http://www.inkscape.org/namespaces/inkscape"
   width="1654"
   height="548.60004"
   viewBox="0 0 1654 548.60002"
   id="svg2"
   version="1.1"
   inkscape:version="0.91 r13725"
   sodipodi:docname="2.svg">
  <defs
     id="defs4" />
  <sodipodi:namedview
     id="base"
     pagecolor="#ffffff"
     bordercolor="#666666"
     borderopacity="1.0"
     inkscape:pageopacity="0.0"
     inkscape:pageshadow="2"
     inkscape:zoom="5.6"
     inkscape:cx="1623.9479"
     inkscape:cy="272.38935"
     inkscape:document-units="px"
     inkscape:current-layer="layer1"
     showgrid="false"
     fit-margin-top="0"
     fit-margin-left="0"
     fit-margin-right="0"
     fit-margin-bottom="0"
     units="px"
     inkscape:window-width="1332"
     inkscape:window-height="683"
     inkscape:window-x="2166"
     inkscape:window-y="185"
     inkscape:window-maximized="0" />
  <metadata
     id="metadata7">
    <rdf:RDF>
      <cc:Work
         rdf:about="">
        <dc:format>image/svg+xml</dc:format>
        <dc:type
           rdf:resource="http://purl.org/dc/dcmitype/StillImage" />
        <dc:title></dc:title>
      </cc:Work>
    </rdf:RDF>
  </metadata>
  <g
     inkscape:label="Layer 1"
     inkscape:groupmode="layer"
     id="layer1"
     transform="translate(504.64282,601.93779)">
    <g
       id="g4138"
       transform="translate(1043.1429,-790.20922)">
      <g
         id="g4140"
         transform="translate(120,-565.71429)">
        <g
           id="g4142"
           transform="translate(165.71428,574.28571)">
          <path
             id="path4144"
             d="m -1833.5,728.1 0,-266 158.5,-0.5 3,-27 72.5,-0.5 0,-16.2 100,2.4 0,14.6 83,1.2 -0.1,-60.9 -11,1.2 0.6,-18.8 9.5,-0.6 0,-76.9 20,0 0,74.3 16.6,-1.3 -0.1,-163.5 21.5,-2.7 26.3,-2.8 -1.5,252.7 30.7,1 10.7,-73.7 -16.3,0 0.6,-18.5 17.2,-1.6 21.7,-164.3 51.2,5.9 -22.1,161.9 32.2,7.3 20.7,-167.1 51.1,3.9 -28.4,247.3 50.4,0.9 -19,219.9 41,-3.3 17.3,-16.9 142.8,-162.5 33.5,-19.2 39.9,32.3 -24.9,24.3 -103.1,90.8 108.3,48.9 58.7,0 17.3,-12.7 60.3,-80.8 99.3,-75 32,-13.6 26.2,38.5 -26.2,17.4 -110.9,86 101.1,47.3 12.4,19.8 5.2,0 3.8,-22.5 40.5,-0.5 0,24.9 30.2,0.7 -3,24.9 134.8,-0.7 0,-167.7 -33.9,-0.5 79.1,-42.1 -1.5,-91.1 -47.6,-35.5 -39.1,9.4 3,16.4 -36.5,11.5 -5.9,-20.3 26.9,-24.2 56.6,-11.6 61.1,49 8,61.2 72.6,0 0.7,-32 26.2,-1.3 10.2,-16.7 9,17 15.6,0 9.5,-15 5,10.5 0,303.5 -1655,0 z m 710.1,-15.6 20.6,-38 -33.3,3.3 -3,36.3 z m 274.3,-1.9 27.4,-39 -59.6,-3.7 16.3,43.2 z m 559.6,-61.5 0,-40.3 -39,2.6 -1.3,39 z m 58,-1 0,-42.9 -44,2.9 0,40 z m -1162.3,-14 3.6,-48 -45,0 -2.6,46 z m 68.3,-2 3.5,-39.8 -37.3,-3.8 -3.8,43.6 z m 67.5,0 -1.6,-33.6 -45.3,-4.2 -4.6,37.9 51.5,0 z m -192.5,-1 2.5,-45 -40.3,0 -3.3,43.9 z m 1162,-34.3 0,-40 -39,1.3 0,41.2 z m 57.5,-3.9 1,-38.6 -45.5,2 0,39.8 z m -1028.4,-9.8 -2.4,-51 -35.8,0 -5.6,46.7 z m -60.7,-6.5 2.2,-22.5 2,-22.7 -39.7,-0.9 -2.5,42.3 z m -127.7,-3 2.7,-48.3 -40.2,1.1 -2.3,49.7 z m 58.6,-3.1 3.1,-48.3 -46.3,2.1 -2.6,48.8 z m 152.8,-132.4 17.3,0 3.9,-31.5 3.9,-31.5 -0.5,-0.5 -16.4,-3.4 -16.1,-2.7 -4.7,32.9 -4.6,34.7 0,2 z m -144.3,-1 0,-66.2 -17,2.4 0,63.9 z"
             inkscape:connector-curvature="0" />
        </g>
        <circle
           id="circle4146"
           cx="-552.40002"
           cy="1152.7"
           r="127"
           style="fill:#000000" />
        <circle
           id="circle4148"
           cx="-818.59998"
           cy="1156.8"
           r="127"
           style="fill:#000000" />
      </g>
    </g>
  </g>
</svg>
