<svg xmlns:svg="http://www.w3.org/2000/svg" xmlns="http://www.w3.org/2000/svg" width="467" height="154.6" viewBox="0 0 1654.7 547.8" version="1.1"><g transform="translate(833.22598,-130.8682)"><path d="m-833.2 412.7 39-1.2 9-208.7 54 0 0-15.6 82.1-31.5 97.9 29.4 0 17.6 26.7 0 1.3-27.6 82.1-31.5 97.9 29.4 0 29.6 22.6 1-0.6-22.5 82.1-31.5 97.9 29.4 0 23.6 23.6 0 3.9 61.5 30.5 1.5 0 31.8 73.6 10.9-19.1-165.4 49.1-3.8 20.9 167.3 34.2-10.1-21.6-159 48.6-6.2 21 162.2 19.3 3.6 0 17.8-16.5 2.3 9.7 71.8 33 0-2.3-253.6 47.6 5.9-1.8 162.6 18.3 2.3 0-75.2 19.5 0-2.8 76.6 13.3 1.4 0 17.6-10.7-1.2-1.6 62.6 84.3-1.3 0-15.7 25.3 0-2.5-107.3-10.4 1.1-9.3-51.1 69.8 1.8-7.3 47.4-9.7 0 3.3 107 35.1 0-2.6 45 124.8 0 5.7-36 23 0-2.5-107.3-10.4 1.1-9.3-51.1 69.8 1.8-7.3 47.4-9.7 0 3.4 107.2 40.3-0.7-0.7 16.3 69.2 1.2 0-16 25.3 0-2.5-107.3-10.4 1.1-9.3-51.1 69.8 1.8-7.3 47.4-9.7 0 3.4 107.2 40.3-0.7 1.5 301.5-1655 0zm921-24.8-9.4-68.8-34.6 6.4 7.5 61.9zm143-0.2 0-64.8-18-2.5 0 68.5zm-601.5-76.8-57.3 2.4 5.7 48.7 53.4 2.8zm-70 3.3-55.7 1.7 1.5 42.5 57.7 3.3zm-141.3-0.6-43.2-2 0 47.1 46 0zm-59.7-2.4-52.5-2 3.9 47.8 49.2 0.7zm404.5 39.5-3.7-43-58.3-1.1 0 46.1zm73.5-42.5-66.7-0.5 3.4 45 63.9 0zm-278.6-9.1-4.9-63.2-50-1.2 1.3 66 53.6-1.6zm-203-1.1 3.1-0.6 0-55.5-53-1.2 1.3 58zm274-0.9-1.9-59.6-63.9 0.1 7.2 61.3 58.7-1.8zm-210.9-5.2-2.4-48.7-40.5-1.5 0 56 43 0zm416.8-57.2-69.3 0 4 60.5 66.5 1.5zm-80.2 0-53.6 0 0 58.9 58.3 1.1z"/></g></svg>