<svg xmlns:svg="http://www.w3.org/2000/svg" xmlns="http://www.w3.org/2000/svg" width="467" height="151" viewBox="0 0 467 151" version="1.1"><g transform="translate(664.9709,-765.45218)"><g transform="matrix(0.28222638,0,0,0.28222638,-429.73521,724.89625)"><path d="m-834.2 357.7 48 0-0.5-46.5-47.5-1.8 0-10.7 47-1.2 0-55.5-47-1.2 0-70.5L-794.2 155.8l97.9 29.4 0 17.6 26.7 0 1.3-27.6 82.1-31.5 97.9 29.4 0 29.6 22.9 0-0.9-21.6 82.1-31.5 97.9 29.4 0 23.6 23.6 0 3.9 61.5 40.7 2 17.6 19 39.9 1.8 1.9 50.2 32.1 58 23.4 3.5 25.1-43.4 14.2-65.3 10.5 4-15.6 63.3-18.7 42.4 30.2 4.6 24.9-31 13.2 9.6-15 25.7 11.6 2.3 12 48.1 68.3 24.2 62.2 53.5 41.8-34.5-16.3-26.6 10.6-9.2 18.1 25.4 66.7-56.1-34.4-31.1 5.3-9.2 39.7 31.5 67.1-50.8 44.6 32.1 31.2-35.5 15-2.3-18.5-78.4 10.5-4.1 20.1 84.3 34.4-0.3-20.8-62.8 46.3-13.7 27-26.7 33.7 0-1.9-62.2 40.3-0.5 1.3-22.9 82.1-31.5 97.9 29.4 0 25.6 28 0 4 204.8 28.8 1.3 0 266-1656.5 0zM-514.6 338l-1.1-27.1-57.3 2.4 5.7 48.7 44 2.6 9.4 0.1zm-67.6 19-1.7-23.7-1.7-19-17.5 0.2-27.8 0.9-10.3 0.6 0.3 20.8 1.2 21.6 50.9 3.2 6.8 0.2-0.1-4.7zm-144.7-43.3-43.2-2 0 47.1 46 0zm1469.1 1.4-55.4-2.6 0.5 40.8 56.7 1.5zm-1124.4 35.6-3.7-43-58.3-1.1 0 46.1zm73.5-42.5-66.7-0.5 3.4 45 63.9 0zm980.2 3.5-55.5-2.5 4 41 55 2.5zm69.9-11.7-4.6-57.2-51.3-3.3 1.3 60.7zm-1328.8-0.8-2.2-31.2-2.6-32.1-25-1.2-25 0 0 26.3 0.6 33 0.6 6.8 26.6-0.7 27-1zm1253-59.9-55.5-2.1 4.9 60.2 55.7 2.4zm-1182 58-1.9-59.6-32.4-1.7-31.5 1.7 6.6 57 0.6 4.4 29.2-0.7zm-213.3-53.9-40.5-1.5 0 56 43 0zm419.2-8.5-69.3 0 4 60.5 66.5 1.5zm-80.2 0-53.6 0 0 58.9 58.3 1.1z"/></g></g></svg>