<svg xmlns:svg="http://www.w3.org/2000/svg" xmlns="http://www.w3.org/2000/svg" width="467" height="146.3" viewBox="0 0 1654.7 518.4" version="1.1"><g transform="translate(833.22598,-160.27771)"><path d="m-833.2 412.7 31 0 0-248 56 0 4 248 50.7 0 1.3-252.2 2.8 0.5 60.8 1.9-4.6 249.8 179 0-7.5-154 45.1 0 12.5 153.3 75.7 0.8 4.4 89.2 121.6 2.4-3.9-91.6 78.9 0 1.3-208 41 0 0 208 79.7 0-1.4-67.7 59.4-5.9 3.9 34.4 224-173.8-0.8 58.4 32.2 129.5-12.6 1-18.9-77.5-1.5 101.5 41.6 0 279.9-219 1.4 70.5 56.9 125.7 160.4-106.8 0.8 395.6-1655 0zm1155.3 161.7-49.3 1.3 0 43 46.7 0zm60.8 0.3-48.6 0.5-2.4 43.5 48.8 0zm-1007.8 8.3 1.8-44.2-53.2 0 0 44.9zm-62.4-44.2-48 1.8-1.6 40 49.6 2.3zm155.8-0.7-44.8-1.3-1.3 44 44.2 0zm68.2 1.9-55.7-1.9-1.3 42.7 57 0zm785.7 23.4 2.2-49.7-49.6-0.9-1.2 52.3zm60.4-1.5 2.1-46.8-48-1.3-2.5 49.9zm-1004.2-79.4-56 2.4 0.8 41.5 53.9 2.4zm158 6.5-55-1.3-1.3 39.9 56.3 1.1zm-225-4.3-41.6 2.1-4.7 40.9 46.3 0zm158 2-43.4 2.3-1.7 38.8 43.9 0zm1178.8-87.5-43.9-100.4 1.3 114 22.3 0z"/></g></svg>