<svg xmlns:svg="http://www.w3.org/2000/svg" xmlns="http://www.w3.org/2000/svg" width="467" height="150.3" viewBox="0 0 1654.7 532.6" version="1.1"><g transform="translate(833.22598,-146.10412)"><path d="m-833.2 412.7 133.5-0.5 6.6-53.5-9.1-1.2 9.3-46.4 5.7-0.1 4.4-33.8-9.4-2.1 9.3-49.4 6.5 0 2.6-23-7.3 0 0-20.8 0-20.8 12.2 0.3 2-16.2 251.3 17.9-1.5 26.5 15 2-7.4 38.6-11.4-1.1-2.4 34.3 11.2 2.6-5.4 40.2-8.4-0.7-2.4 25.2 9.2 0 0 47.5-11.8-0.7-3.4 35.2 116.2-0.2 2.9-207.7 48 0 1.3 208 78.9 0-3.9 91.6 121.6-2.4 4.4-89.2 75.7-0.7 12.5-153.2 45.1 0-7.5 154 179 0-4.6-249.8 63.6-2.4 1.3 252.2 50.7 0 4-248 56 0 0 248 59 0 4.5 87.4 102.5 2.8-2.8-90.2 76.4 0 11-56.9 150.3 21.5-4.9 34.2 15 1.3 0 266-1655 0 0-266z"/></g></svg>