<svg xmlns:svg="http://www.w3.org/2000/svg" xmlns="http://www.w3.org/2000/svg" width="467" height="164.1" viewBox="0 0 467 164.1" version="1.1"><style>.s0{fill:#000;}</style><g transform="translate(370.71341,-504.57649)"><g transform="matrix(0.28222638,0,0,0.28222638,-135.56239,477.11586)"><path d="m-833.2 343.2 5.1-10.5 9 14 16.5 0 8.5-16 10 16 26 0 0 32 74.8 0 7.7-61.8 60.5-47.2 56.5 11.3 22.3 20.3-1.9 21.6-34.9-11.5 3-13.7-43.2-10.4-44.7 34.7-2.2 93.2 78.2 41-32.1 0.5 0.3 168.1 135.7 0.3 0.5-23.5 25.5-2.2 0-24.7 39.7 0 3.8 23.5 6.1 0.3 14.1-21-19.1-137-17-15.1 24.4-35.2 24.1 9.7 183.9 170.4 60.7 0 0.6-144-20.3-19.8 37.8-30.1 25.7 11.7 165.2 182.3 3.7 3.4 42.2 3.5-19.1-220.1 50.5-0.5-28.5-247.6 49.1-3.8 20.9 167.3 34.2-10.1-21.6-159 48.6-6.2 21 162.2 19.3 3.6 0 17.8-16.5 2.3 9.7 71.8 33 0-2.3-253.6 47.6 5.9-1.3 163 17.8 1.8 0-75.2 19.5 0 0.6 77.1 9.9 0.9 0 17.6-10.7-1.2-1.6 62.6 84.3-1.3 0-15.4 99.5-2.4-0.7 17.3 73-0.7 3.5 27.5 159.4 0 0 300-1656.8 0 0-335.5zm957.9 251-34.9-3.7 21.3 38.9 16.7 1.3zm-270.4 32.7 16.3-42.7-61.6 3 28.3 41.5zm-536.5-99.1-41-3.4 0.7 41.6 40.3 0.7zm-54-4.2-45-2.5-0.1 43.8 45.1 0.7zm1163.3 26-2.6-47-46.9 0 3.8 46.9zm-134.3-39.8-45.5 5-1.7 33.8 53.3 0zm55.6-6-39.2 4.1 3.6 38.9 39 1.8zm131.7 42.6-2.6-43.9-42 0 2.6 46.1zm-1166.7-72.3-37.8-1.6 1.5 40.7 38.4 3.2zm-49.6-2.5-46-1.3 0 40.3 45.3 2.9zm1028 24.3-5.5-47.8-36.9 2.3 0 50.2zm55.7-5.7-3.1-43.2-41.6-0.5 5.6 48zm129.4 1.1-4-48.7-41.2-2.2 3.3 50.8 41.8 0zm-55.5-51.2-47.2-1.1 3.1 48.4 46.7 3.2zm-178.5-86.3-9.4-68.8-34.6 6.4 7.5 61.9zm143-0.2 0-64.8-18-2.5 0 68.5z"/><circle cx="-293" cy="495.3" r="126.5" fill="#000"/><circle cx="-26.8" cy="499.2" r="126.5" fill="#000"/></g></g></svg>