<svg xmlns:svg="http://www.w3.org/2000/svg" xmlns="http://www.w3.org/2000/svg" width="466" height="150.7" viewBox="0 0 466 150.7" version="1.1"><g transform="translate(530.55695,-631.32208)"><g transform="matrix(0.28222489,0,0,0.28222492,-295.35073,590.34302)"><path d="M-834.5 308.4-830.1 276.4l-4.4 0.1 0-28.4L-828.9 225.7l6.4 0 2.6-23-7.3 0 0-41.6 12.2 0.3 2-16.2 251.3 17.9-1.5 26.5 15 2-7.4 38.6-11.2-0.6-2.7 33.8 11.2 2.6-5.4 40.2-8.4-0.7-2.4 25.2 9.2 0 0 47.5-11.8-0.7-3.4 35.2 116.2-0.2 2.9-207.7 48 0 1.3 208 78.9 0-3.9 91.6 121.6-2.4 4.4-89.2 75.7-0.7 12.5-153.2 45.1 0-7.5 154 179 0-4.6-249.8 63.6-2.4 1.3 252.2 50.7 0 4-248 56 0 0 248 59 0 4.5 87.4 102.5 2.8-2.8-90.2 76.4 0 11-56.9 150.3 21.5-4.9 34.2 70 1.3 3.9-81.6 44.1 1.8 0 79.8 42 0 0 266-1655.2 0z"/></g></g></svg>