<svg xmlns:svg="http://www.w3.org/2000/svg" xmlns="http://www.w3.org/2000/svg" width="1655" height="534.5" viewBox="0 0 1655 534.5" version="1.1"><g transform="translate(1740.7624,2427.9084)"><path d="m-1740.8-1893.4 0-266 15 0-4.9-35.4 150.3-21.5 11 56.9 76.4 0-2.8 90.2 102.5-2.8 4.5-87.4 59 0 0-248 56 0 4 248 50.7 0 1.3-252.2 63.6 2.4-4.6 249.8 179 0-7.5-154 45.1 0 12.4 154 75.7 0 3.6 88 122.3 3.7-3.9-91.6 78.9 0 1.3-208 48 0 2.9 207.8 116.2 0.3-3.4-35.2-11.8 0.7 0-47.5 9.2 0-2.4-25.2-8.4 0.7-5.4-41.4 11.2-1.4-3.3-33.9-10.6 0.7-7.3-39.3 15-1.4-1.5-26.5 251.3-17.9 2 16.2 12.2-0.3 0 41.6-7.3 0 2.6 23 6.5 0 9.3 51-8.9 1.6 3.9 33.6 5.7-0.8 9.3 47.6-9.1 0 6.6 53.5 133.5 0.5 0 266-1655 0z" fill="#000"/></g></svg>
