<svg xmlns:svg="http://www.w3.org/2000/svg" xmlns="http://www.w3.org/2000/svg" width="466.7" height="164.2" viewBox="0 0 1653.7 581.8" version="1.1"><g transform="translate(833.47157,-96.85207)"><path d="m-833.5 378.7 62.7 0 1.3-34 17.4 0.5 10.7-15.3 4.2 15.8 12.8 0 7.2-10.1 7.1 10.1 20.8-0.6 6-12.5 9 14 16.5 0 8.5-16 10 16 26 0 0 32 74.8 0 7.7-61.8 60.5-47.2 56.5 11.3 25.9 23.4-5.5 18.5-34.9-11.5 3-13.7-43.2-10.4-44.7 34.7-2.2 93.2 78.2 41-32.1 0.5 0.3 168.1 135.7 0.3-1.8-24.4 27.8-1.4 0-24.7 39.7 0 3.8 23.5 6.6 0 13.6-20.7-19.1-137-17-15.1 24.4-35.2 24.1 9.7 183.9 170.4 60.7 0 0.6-144-20.3-19.8 37.8-30.1 25.7 11.7 166.1 179.8 2.7 5.9 42.2 3.5-19.1-220.1 50.5-0.5-28.5-247.6 49.1-3.8 20.9 167.3 34.2-10.1-21.6-159 48.6-6.2 21 162.2 19.3 3.6 0 17.8-16.5 2.3 9.7 71.8 33 0-2.3-253.6 47.6 5.9 1.2 163 15.3 1.8 0-75.2 19.5 0 0.6 77.1 9.9 0.9 0 17.6-10.7-1.2-1.6 62.6 84.3-1.3 0-15.4 99.5-2.4-0.7 17.3 73-0.7 2.6 27.8 13.7-0.3 0 300-1654 0 0-300zm1102.9 215.5-34.9-3.7 21.3 38.9 16.7 1.3zm-270.4 32.7 16.3-42.7-61.6 3 28.3 41.5zm-536.5-99.1-41-3.4 0.7 41.6 40.3 0.7zm-54-4.2-45-2.5 3.4 43.8 41.6 0.7zm1163.3 26-2.6-47-46.9 0 3.8 46.9zm-134.3-39.8-45.5 5-1.7 33.8 53.3 0zm55.6-6-39.2 4.1 3.6 38.9 39 1.8zm131.7 42.6-2.6-43.9-42 0 2.6 46.1zm-1166.7-72.3-37.8-1.6 1.5 40.7 38.4 3.2zm-49.6-2.5-46-1.3 0 40.3 45.3 2.9zm1028 24.3-5.5-47.8-36.9 2.3 0 50.2zm55.7-5.7-3.1-43.2-41.6-0.5 5.6 48zm129.4 1.1-4-48.7-41.2-2.2 3.3 50.8zm-55.5-51.2-47.2-1.1 3.1 48.4 46.7 3.2zm-178.5-86.3-9.4-68.8-34.6 6.4 7.5 61.9zm137.8-0.2 5.3 0 0-64.8-18-2.5 0 68.5z"/><circle r="126.2" cy="495.5" cx="-148.4" fill="#000"/><circle r="126.2" cy="499.9" cx="117.3" fill="#000"/></g></svg>