<svg xmlns:svg="http://www.w3.org/2000/svg" xmlns="http://www.w3.org/2000/svg" width="466.7" height="155.8" viewBox="0 0 1653.7 552" version="1.1"><g transform="translate(833.47157,-126.61588)"><path d="m-833.5 378.7 44.7 0 1.1-70.5-9.9 42.3-10.9-6.9 22.2-85.2 1.3-74.8 257.7 172.3 56.9-125.7 1.4-70.5 279.9 219 41.6 0-1.5-101.5-18.9 77.5-12.6-1 32.2-129.5-0.8-58.4 224 173.8 3.9-34.4 59.4 5.9-1.4 67.7 79.7 0 0-208 41 0 1.3 208 78.9 0-3.9 91.6 121.6-2.4 4.4-89.2 75.7-0.7 12.5-153.2 45.1 0-7.5 154 179 0-4.6-249.7 60.6-1.6 0 551.3-1654 0zm632.5 162.5-48.6-0.5 2.2 44 48.8 0zm61.5 0.5-49.3-1.3 2.6 44.3 46.7 0zm949 7.7 0-44.7-53.2 0 1.8 44.3zm-157.3-45.4-55.7 1.9 0 40.8 57 0zm57.3-1.3-44.8 1.3 1.9 42.7 44.2 0zm-851.2-24-49.6 0.9 2.1 50 48.8 1.1zm-62 0.8-47.3 1.4 1.1 47.3 48.8 1.5zm855.8 14-0.8-39.8-54.8 1.3 0 40zm157.5-0.8 1-41.8-56-2.4 1.3 46.4 53.7-2.1zm-102.6-37.7-43.4-2.2 1.3 41 43.9 0zm-1178.3-190.2-43.9 100.4 20.3 13.5 22.3 0z"/></g></svg>