<svg xmlns:svg="http://www.w3.org/2000/svg" xmlns="http://www.w3.org/2000/svg" width="1655" height="536.2" viewBox="0 0 1655 536.2" version="1.1"><g transform="translate(1721.0753,2710.1255)"><path d="m-1721-2173.9 0-322 46 0 0-45-45.5-1.5-0.6-12.5 46.3 0-1.2-56-45 0 0.5-72.4 38.4-14.6 98.1 29.5 0 18.5 26 0 2-28.3 81.4-31.9 98.6 29.7 0 30.5 21 0 0.6-20.5 83.2-33.7 97.3 29.7 0 24.5 24 0 4.4 62 39.5 0 18.4 19.8 40.2 1.5 1.7 50.2 32.1 58.2 24.1 3.1 23.4-43.4 14.2-64.8 12 3.8-19.7 74.1-15 33 25.7 4.1 29-31.6 14.1 10.1-15 25.4 11.7 3.1 11.7 47.3 67.5 23.7 62.1 53.5 41.8-34.6-17.4-27.4 11.5-9.1 18.5 25.8 65.8-55.2-36.3-32.6 7.9-8.3 37.6 33.1 69.1-52.8 45.4 33 29.5-35 15.6-0.5-19-82.2 12.3-3.2 20.2 85.4 32.5 0.5-21.1-64.5 47.6-13.7 27.2-26.9 33.5 1.4-2.5-64.3 41.2 0 0.6-20.5 83.2-33.7 97.3 29.7 0 25.2 27.9 1.4 5.3 205.8 26.8 0 0 266zm318.1-314.1 0.6 0.1-1.9-53-55.6 2.5 5.3 47.3 51.6 3.1zm-67.5-3.9-3.6-46.3-54 2.5 0 41.5zm-141.9-2-2.7-44.4-42.9-1.8 0 45.2zm1468.5-4-2.4-38.7-53.8-2.6 0 39.3zm-1127.1-2-3-44.2 0-0.7-58 0 0 45zm75.3 0-1.3-43.9-64.8-0.4 2.9 44.3zm981.9-1-3.6-38.8-53.4-2.7 3.1 40.5zm67-50-0.6-4.7-2.9-54-50.7-2.5 0 59.3zm-1329.3-3.6-5.1-61.9-49-1 1.2 64.7zm1258.3 0.6-5.8-59-53.9-2.5 6.4 59.7zm-1187.3-2.5-1.1-59.5-63.4-1.2 7.6 62.2zm-210.5 0.5-2.6-54-39.7 0 0 54zm419-1-1.3-61-69.1 0 4.3 60zm-78-2-4.6-59-52.7 0 0 57.9z"/></g></svg>
