<svg xmlns:svg="http://www.w3.org/2000/svg" xmlns="http://www.w3.org/2000/svg" width="1655" height="536.2" viewBox="0 0 1655 536.2" version="1.1"><g transform="translate(1721.0753,2710.1255)"><path d="m-1721.1-2173.9 0-266 31 0 0-248 55.9 0 5.2 244.8 49 3.3 2.9-252.3 61.9 1.8-3.9 250.5 178.6 0-7.5-154 46.5 0.5 12.6 153.5 75.7 0 3.6 89.8 121.5 2.4-4.6-92.2 78.5 0 2.6-208 40.7 0 0 208 78.8 0-0.3-68.5 60-5 3.7 32.4 223.3-173 1 63.6 15.7 62.2 15.7 64.3-14.5 0-18.4-73.5-0.1 48.8-0.1 48.8 39.5-0.1 280.9-219.9 2.3 71.5 56.8 125.3 160.5-107.9 0 397.1zm1152-60 2.5-43.3-47.1 1.5-0.9 41.8zm62 0 1.3-43-47.1 0-2.4 43zm-1006-34 1.3-46-51.3 0 0 44zm-63-3 0-43-45.7 0-3.3 41.9zm154.7-1 0.8-41.9-42.2-1.4-2 43.3zm70.3 0 0-39.9-54.7-2-1.3 41.9zm784.1-17.5 3.8-48.9-49.9-1.1-1.3 50.7zm61.7-1.5 2-47-46.6 0-2.6 48.3zm-1006-34 1.9-45.1-54.7 2.3 0 42.8zm160.2 0 0-38.9-53.8-0.5-1.5 39.4zm-225.5-1-1-40.8-41.2 1.1-2.6 39.7zm156.5 0 1.5-38.8-42.1-0.7-1.6 39.5zm1159.1-114 20.9-14-42.6-96.9 1.9 111z"/></g></svg>
