<svg xmlns:svg="http://www.w3.org/2000/svg" xmlns="http://www.w3.org/2000/svg" width="139.7" height="215.9" viewBox="0 0 495 765" version="1.1"><g transform="translate(-124.54724,-287.36221)"><rect width="495" height="765" x="124.5" y="287.4" fill="#fff"/><g transform="translate(4.0944883e-6,162.51338)"><g transform="matrix(1.25,0,0,-1.25,124.54724,889.84882)"><g transform="matrix(1,0,0,-1,29.1917,555.6242)"><path d="m20.4-21.1 0 5.4q-0.1 0.3-0.4 0.4l-5.2 0.1q-0.4 0.1-0.5 0.6L14.2-0.1Q14.1 0.2 13.8 0.2L7.6 0.3Q7.3 0.2 7.3-0.1l0-4 0.1-10.6q-0.1-0.5-0.5-0.6L1.9-15.2Q1.7-15.3 1.5-15.6l0-5.4 0.4-0.3 18.1-0.1q0.3 0.1 0.3 0.4zM61.1-20.7l0 5.4-0.2 15.1q-0.1 0.4-0.4 0.5l-6.2-0.1q-0.2-0.1-0.3-0.3 0-2.3 0-7-0.3-0.6-1.2-0.6-1.4 0-1.5 0-0.6 0.1-0.6 0.6l-0.1 6.9q-0.1 0.3-0.4 0.4l-5.8 0q-0.5-0.1-0.5-0.4l0.4-20.6q0.1-0.3 0.5-0.4 2 0 5.9 0.2l0.2 0.3q0.1 1.1 0 3.2-0.1 2.2 0 3.2 0.1 0.5 0.5 0.6l2.4 0q0.4-0.1 0.4-0.5l0.1-6.3q0.1-0.3 0.4-0.4l6.2 0.1 0.3 0.3zM100.5-4.2l-0.1 4.4-0.3 0.3-13.4 0q-1.2 0-1.3-0.4l-0.1-3 0.2-17.9q0-0.2 0.5-0.4l13.9 0q0.2 0.1 0.4 0.3l-0.1 0.8-0.1 4.8q-0.1 0.3-0.5 0.3-0.6 0-0.6 0l-5.9 0.1q-0.5 0.1-0.6 0.5 0 0.7 0.2 0.9l0.4 0.2 5.7 0 0.3 0.4-0.1 5.3-0.3 0.3q-2 0-5.9 0.2-0.5 0.3-0.3 0.9 0.1 0.4 0.4 0.4l7.3 0q0.3 0.2 0.3 0.7 0 0.4 0 0.8zM168.9-16.8q0.5 1.2 0.5 2.6 0 2.6-1.5 4.9-1.4 1.7-3.7 2.3-1.6 0.4-4.4 0.5-0.5 0.1-0.5 0.6l-0.1 5.8q-0.1 0.3-0.4 0.4l-6.1 0q-0.3-0.1-0.3-0.3l0-4.8 0.3-16.3q0.2-0.3 0.6-0.3l9.1 0.1q2.2 0 4 1.3 1.9 1.2 2.7 3.2zm-6.6 3.6q0.3-1.1-0.2-1.5-0.8-0.8-2.2-0.6-0.4 0-0.5 0.4 0 2.1 0.1 2.6 0.6 0.4 1.9 0.1 0.7-0.3 0.9-0.9zM208.3-5.9q0.1 4.2-0.1 5.6l-0.3 0.3-1.8 0.1-13 0-0.3-0.3 0-8.3 0.2-12.4q0.1-0.3 0.4-0.4l6.4 0 0.3 0.3-0.1 14.3q0.1 0.5 0.6 0.5l7 0q0.4 0 0.5 0.3zM252.4 0q0 0.1-0.3 0.3l-6.7-0.1-0.3-0.4-0.6-2.3q-0.3-0.5-0.9-0.4-1.6-0.1-4.8 0.1-0.4 0.4-0.6 1.3-0.3 1-0.4 1.4l-0.4 0.3q-4.8 0.1-6.3-0.1-0.2-0.2-0.1-0.5 0.1-0.5 0.1-0.5l6.8-20.1q0.1-0.1 0.4-0.3l7.8 0.2q0.2 0.1 0.5 0.8l5.8 20.3zm-9.6-9.4-0.8-3.2q0-0.4-0.4-0.4-0.1 0-0.2 0.2l-0.9 3.2q-0.2 0.5 0.2 0.8 1.5 0.2 1.9 0 0.3-0.1 0.3-0.5zM293.5-20.8l-0.2 20.6q0 0.3-0.4 0.4l-6.7 0-0.4-0.4-2.5-7.3q-0.1-0.2-0.4-0.4l-0.3 0.3q0 0.9-0.1 2l0 3.5q0 1.2-0.1 2l-0.3 0.3q-4.7 0-5.8-0.1l-0.2-0.2-0.1-2 0.2-18.7q0-0.3 0.4-0.4l7.1 0q0.4 0 0.5 0.5l2.1 6.5q0.1 0.3 0.3 0.4 0.2 0 0.3-0.1 0.1-0.2 0.1-0.4l0.1-6.7q0.2-0.3 0.5-0.3l5.3 0q0.3 0.1 0.3 0.3zM336-21.1l0 5.4q-0.1 0.3-0.4 0.4l-5.2 0.1q-0.4 0.1-0.5 0.6l-0.1 14.5q-0.1 0.3-0.4 0.3l-6.2 0q-0.3-0.1-0.4-0.3l0-4 0.1-10.6q-0.1-0.5-0.5-0.6l-4.9 0q-0.3-0.1-0.4-0.3l0-5.4 0.4-0.3 18.1-0.1q0.3 0.1 0.3 0.4z"/></g><path d="M0 0 396 0 396 145 0 145 0 0ZM38 27l33 0 0 504-33 0 0-504zM89 27l33 0 0 504-33 0 0-504zM23 129l115 0 0 29-115 0 0-29z" fill="#000"/><path d="m258 53 42 0 0 44-42 0 0-44z" fill="#fff"/><g transform="translate(258.8654,49.25)"><path d="m0 0 16 17 0 9.5 6 0 2.2-9.6L39.5 1.2 0 0Z" fill="#000"/></g><path d="m317 52 42 0 0 44-42 0 0-44z" fill="#000"/><path d="m18 490 133 0 0 49-133 0 0-49z" fill="#fff"/></g></g></g></svg>