<svg xmlns:svg="http://www.w3.org/2000/svg" xmlns="http://www.w3.org/2000/svg" width="39.4" height="60.9" viewBox="0 0 139.7 215.9" version="1.1"><rect y="0" x="0" height="215.9" width="139.7" fill="#fff"/><rect y="164.7" x="-1" height="51.2" width="141.7" fill="#000"/><rect y="160.2" x="8.1" height="55.7" width="40.6" fill="#000"/><rect y="43" x="31.4" height="172.9" width="11.6" fill="#000"/><rect y="43" x="13.4" height="172.9" width="11.6" fill="#000"/><path d="m17.5 12.4 0 1.9q0 0.1-0.1 0.1l-1.8 0q-0.1 0-0.2 0.2l0 5.1q0 0.1-0.1 0.1l-2.2 0q-0.1 0-0.1-0.1l0-1.4 0-3.7q0-0.2-0.2-0.2l-1.8 0q-0.1 0-0.1-0.1l0-1.9 0.1-0.1 6.4 0q0.1 0 0.1 0.1zm14.4 0.1 0 1.9-0.1 5.3q0 0.1-0.1 0.2L29.5 19.9q-0.1 0-0.1-0.1 0-0.8 0-2.5-0.1-0.2-0.4-0.2-0.5 0-0.5 0-0.2 0-0.2 0.2l0 2.4q0 0.1-0.1 0.1l-2 0q-0.2 0-0.2-0.1l0.1-7.3q0-0.1 0.2-0.1 0.7 0 2.1 0.1l0.1 0.1q0 0.4 0 1.1 0 0.8 0 1.1 0 0.2 0.2 0.2l0.8 0q0.1 0 0.1-0.2l0-2.2q0-0.1 0.1-0.1l2.2 0 0.1 0.1zm13.9 5.8 0 1.6-0.1 0.1-4.7 0q-0.4 0-0.5-0.1l0-1.1 0.1-6.3q0-0.1 0.2-0.1l4.9 0q0.1 0 0.1 0.1l0 0.3 0 1.7q0 0.1-0.2 0.1-0.2 0-0.2 0l-2.1 0q-0.2 0-0.2 0.2 0 0.2 0.1 0.3l0.1 0.1 2 0 0.1 0.1 0 1.9-0.1 0.1q-0.7 0-2.1 0.1-0.2 0.1-0.1 0.3 0 0.1 0.1 0.1l2.6 0q0.1 0.1 0.1 0.2 0 0.1 0 0.3zm24.1-4.4q0.2 0.4 0.2 0.9 0 0.9-0.5 1.7-0.5 0.6-1.3 0.8-0.6 0.1-1.6 0.2-0.2 0-0.2 0.2l0 2q0 0.1-0.1 0.1l-2.2 0Q64.1 19.9 64.1 19.9l0-1.7 0.1-5.8q0.1-0.1 0.2-0.1l3.2 0q0.8 0 1.4 0.5 0.7 0.4 1 1.1zm-2.3 1.3q0.1-0.4-0.1-0.5-0.3-0.3-0.8-0.2-0.1 0-0.2 0.1 0 0.7 0 0.9 0.2 0.1 0.7 0 0.2-0.1 0.3-0.3zm16.2 2.6q0 1.5 0 2l-0.1 0.1-0.6 0-4.6 0-0.1-0.1 0-2.9 0.1-4.4q0-0.1 0.1-0.1l2.3 0 0.1 0.1 0 5q0 0.2 0.2 0.2l2.5 0q0.1 0 0.2 0.1zm15.6 2.1q0 0-0.1 0.1L96.9 19.9 96.8 19.8 96.6 19q-0.1-0.2-0.3-0.1-0.6 0-1.7 0-0.1 0.1-0.2 0.5-0.1 0.4-0.1 0.5l-0.1 0.1q-1.7 0-2.2 0-0.1-0.1 0-0.2 0-0.2 0-0.2l2.4-7.1q0 0 0.1-0.1l2.8 0.1q0.1 0 0.2 0.3l2 7.2zm-3.4-3.3-0.3-1.1q0-0.1-0.1-0.1 0 0-0.1 0.1l-0.3 1.1q-0.1 0.2 0.1 0.3 0.5 0.1 0.7 0 0.1 0 0.1-0.2zm17.9-4-0.1 7.3q0 0.1-0.1 0.1l-2.4 0-0.1-0.1-0.9-2.6q0-0.1-0.1-0.1l-0.1 0.1q0 0.3 0 0.7l0 1.2q0 0.4 0 0.7l-0.1 0.1q-1.7 0-2 0l-0.1-0.1 0-0.7 0.1-6.6q0-0.1 0.1-0.1l2.5 0q0.1 0 0.2 0.2l0.7 2.3q0 0.1 0.1 0.1 0.1 0 0.1 0 0-0.1 0-0.1l0-2.4q0.1-0.1 0.2-0.1l1.9 0q0.1 0 0.1 0.1zm15-0.1 0 1.9q0 0.1-0.1 0.1l-1.8 0q-0.1 0-0.2 0.2l0 5.1q0 0.1-0.1 0.1l-2.2 0q-0.1 0-0.1-0.1l0-1.4 0-3.7q0-0.2-0.2-0.2l-1.7 0q-0.1 0-0.1-0.1l0-1.9 0.1-0.1 6.4 0q0.1 0 0.1 0.1z"/><rect y="181.7" x="91" height="15.5" width="14.8" fill="#fff"/><path d="m91.3 198.5 5.6-6 0-3.4 2.1 0 0.8 3.4 5.4 5.5-13.9 0.4z" fill="#000"/></svg>