<svg xmlns:svg="http://www.w3.org/2000/svg" xmlns="http://www.w3.org/2000/svg" width="118.4" height="26" viewBox="0 0 419.4 92.3" version="1.1"><g transform="translate(-160.70348,-960.09909)"><path d="m530 960.5 48.1-0.4-17.5 50.9 19.5-1.7-34.2 43.1-31.5-37.4 21.6-1.9-6-52.7zM459.2 960.5l48.1-0.4-17.5 50.9 19.5-1.7-34.2 43.1-31.5-37.4 21.6-1.9-6-52.7zM388.5 960.5l48.1-0.4-17.5 50.9 19.5-1.7-34.2 43.1-31.5-37.4 21.6-1.9-6-52.7zM317.7 960.5l48.1-0.4-17.5 50.9 19.5-1.7-34.2 43.1-31.5-37.4 21.6-1.9-6-52.7zM247 960.5l48.1-0.4-17.5 50.9 19.5-1.7-34.2 43.1-31.5-37.4 21.6-1.9-6-52.7zM176.2 960.5l48.1-0.4-17.5 50.9 19.5-1.7-34.2 43.1-31.5-37.4 21.6-1.9-6-52.7z" fill="#000"/></g></svg>