<?xml version="1.0" encoding="UTF-8" standalone="no"?>
<!-- Created with Inkscape (http://www.inkscape.org/) -->

<svg
   xmlns:dc="http://purl.org/dc/elements/1.1/"
   xmlns:cc="http://creativecommons.org/ns#"
   xmlns:rdf="http://www.w3.org/1999/02/22-rdf-syntax-ns#"
   xmlns:svg="http://www.w3.org/2000/svg"
   xmlns="http://www.w3.org/2000/svg"
   xmlns:sodipodi="http://sodipodi.sourceforge.net/DTD/sodipodi-0.dtd"
   xmlns:inkscape="http://www.inkscape.org/namespaces/inkscape"
   width="118.35802mm"
   height="26.0387mm"
   viewBox="0 0 419.3788 92.26311"
   id="svg2"
   version="1.1"
   inkscape:version="0.91 r13725"
   sodipodi:docname="down.svg">
  <defs
     id="defs4" />
  <sodipodi:namedview
     id="base"
     pagecolor="#ffffff"
     bordercolor="#666666"
     borderopacity="1.0"
     inkscape:pageopacity="0.0"
     inkscape:pageshadow="2"
     inkscape:zoom="0.71761751"
     inkscape:cx="123.46667"
     inkscape:cy="27.446193"
     inkscape:document-units="px"
     inkscape:current-layer="layer1"
     showgrid="false"
     fit-margin-top="0"
     fit-margin-left="0"
     fit-margin-right="0"
     fit-margin-bottom="0"
     inkscape:window-width="1050"
     inkscape:window-height="766"
     inkscape:window-x="2495"
     inkscape:window-y="195"
     inkscape:window-maximized="0" />
  <metadata
     id="metadata7">
    <rdf:RDF>
      <cc:Work
         rdf:about="">
        <dc:format>image/svg+xml</dc:format>
        <dc:type
           rdf:resource="http://purl.org/dc/dcmitype/StillImage" />
        <dc:title></dc:title>
      </cc:Work>
    </rdf:RDF>
  </metadata>
  <g
     inkscape:label="Layer 1"
     inkscape:groupmode="layer"
     id="layer1"
     transform="translate(-160.70348,-960.09909)">
    <path
       inkscape:connector-curvature="0"
       id="path4548-7"
       style="fill:#000000;fill-opacity:1;fill-rule:nonzero;stroke:none"
       d="m 529.9849,960.45082 48.09543,-0.35173 -17.51206,50.86221 19.51402,-1.7039 -34.18497,43.1048 -31.452,-37.3716 21.55864,-1.884 -6.01906,-52.65578 z" />
    <path
       inkscape:connector-curvature="0"
       id="path4548-7-7"
       style="fill:#000000;fill-opacity:1;fill-rule:nonzero;stroke:none"
       d="m 459.23654,960.45082 48.09543,-0.35173 -17.51206,50.86221 19.51402,-1.7039 -34.18497,43.1048 -31.452,-37.3716 21.55864,-1.884 -6.01906,-52.65578 z" />
    <path
       inkscape:connector-curvature="0"
       id="path4548-7-70"
       style="fill:#000000;fill-opacity:1;fill-rule:nonzero;stroke:none"
       d="m 388.48815,960.45082 48.09543,-0.35173 -17.51206,50.86221 19.51402,-1.7039 -34.18497,43.1048 -31.452,-37.3716 21.55864,-1.884 -6.01906,-52.65578 z" />
    <path
       inkscape:connector-curvature="0"
       id="path4548-7-5"
       style="fill:#000000;fill-opacity:1;fill-rule:nonzero;stroke:none"
       d="m 317.7398,960.45082 48.09543,-0.35173 -17.51206,50.86221 19.51402,-1.7039 -34.18497,43.1048 -31.452,-37.3716 21.55864,-1.884 -6.01906,-52.65578 z" />
    <path
       inkscape:connector-curvature="0"
       id="path4548-7-79"
       style="fill:#000000;fill-opacity:1;fill-rule:nonzero;stroke:none"
       d="m 246.99142,960.45082 48.09543,-0.35173 -17.51206,50.86221 19.51402,-1.7039 -34.18497,43.1048 -31.452,-37.3716 21.55864,-1.884 -6.01906,-52.65578 z" />
    <path
       inkscape:connector-curvature="0"
       id="path4548-7-2"
       style="fill:#000000;fill-opacity:1;fill-rule:nonzero;stroke:none"
       d="m 176.24306,960.45082 48.09543,-0.35173 -17.51206,50.86221 19.51402,-1.7039 -34.18497,43.1048 -31.452,-37.3716 21.55864,-1.884 -6.01906,-52.65578 z" />
  </g>
</svg>
