<svg xmlns:svg="http://www.w3.org/2000/svg" xmlns="http://www.w3.org/2000/svg" width="126.7" height="130.4" viewBox="0 0 448.8 462.2" version="1.1"><g transform="translate(-33.408696,-26.030007)"><path d="M102.5 26 192.5 371.8 481.8 395 391.7 49.3ZM83.6 27.6 44.3 62.6 33.8 102.9 37.1 114.7 58 79.4 89.6 50.5Zm10.8 41.6-38 47.4-8.7 36.5L112.5 388.4 137.6 357.6 164.5 338.3ZM169.3 356.8 139.5 383.7 121.1 419.5 134.4 462.1 151.4 408.9 175.6 381Zm26.3 34-33.8 33.3-8 39.7 289.8 24.5-8.6-28.5-22.4-9 46.3-7.3-13.5-12.9 24.8-17.7z" fill="#fff"/></g></svg>